<svg width="39" height="40" viewBox="0 0 39 40" fill="none" xmlns="http://www.w3.org/2000/svg">
<path d="M0 20H7.54839M39 20L19.5 20M19.5 0V7.74194M19.5 40V32.2581M12.0377 1.52218L14.9263 8.67479M26.9623 38.4774L24.0737 31.3247M1.48435 12.3463L8.45815 15.309M37.5156 27.6536L30.5418 24.6909M1.48447 27.6537L8.45827 24.691M37.5158 12.3464L30.542 15.3091M12.038 38.4778L14.9266 31.3252M26.9626 1.52264L24.074 8.67526M33.2886 5.85811L27.9511 11.3325M5.71141 34.1424L11.0489 28.668M33.2886 34.1419L27.9511 28.6675M5.71141 5.85762L11.0489 11.332" stroke="#2466F2" stroke-width="1.75"/>
</svg>
